Coordinates
version=1
nRows=5
nColumns=42
inDegrees=yes

Units are S.I. units (second, meters, Newtons, ...)
If the header above contains a line with 'inDegrees', this indicates whether rotational values are in degrees (yes) or radians (no).

endheader
time	pelvis_tilt	pelvis_list	pelvis_rotation	pelvis_tx	pelvis_ty	pelvis_tz	hip_flexion_r	hip_adduction_r	hip_rotation_r	knee_angle_r	knee_adduction_r	knee_angle_r_beta	ankle_angle_r	subtalar_angle_r	mtp_angle_r	hip_flexion_l	hip_adduction_l	hip_rotation_l	knee_angle_l	knee_adduction_l	knee_angle_l_beta	ankle_angle_l	subtalar_angle_l	mtp_angle_l	lumbar_extension	lumbar_bending	lumbar_rotation	arm_flex_r	arm_add_r	arm_rot_r	elbow_flex_r	pro_sup_r	wrist_flex_r	wrist_dev_r	arm_flex_l	arm_add_l	arm_rot_l	elbow_flex_l	pro_sup_l	wrist_flex_l	wrist_dev_l
      0.92000000	      7.81910289	      0.04250527	      9.07739503	     -0.62455839	      0.87228467	      0.16365166	     10.73659174	     -0.23592828	     -5.31081985	     60.81369473	      0.46674008	      1.06139920	     18.19101890	    -15.87887747	     -7.89740546	      7.15564068	      5.48712632	     -4.74194098	     28.80783630	     -5.58407441	      0.50279159	     21.95068450	      1.57097081	     -7.89740546	    -37.13913887	      4.84909984	     -7.11212151	     15.01624501	    -10.82525755	      6.81161382	     42.94092485	     90.00000001	      0.00000000	      0.00000000	     16.44735565	    -15.48416830	     -5.19238731	     37.30612970	     90.00000001	      0.00000000	      0.00000000
      0.93000000	      7.58747753	      0.03171426	      9.10589367	     -0.61673996	      0.87216406	      0.16309005	     12.20723965	     -0.41132122	     -5.18737673	     59.40150953	      0.42334576	      1.03675192	     18.38084759	    -15.42939521	     -7.89095521	      6.82853601	      5.59391750	     -4.71907072	     28.82709551	     -5.83667418	      0.50312773	     22.27003829	      1.59116362	     -7.89095521	    -37.03484697	      4.93708808	     -7.18068324	     14.50765967	    -10.78512727	      6.79575948	     42.49674133	     90.00000001	      0.00000000	      0.00000000	     17.14826772	    -15.68671864	     -4.88134348	     37.85810112	     90.00000001	      0.00000000	      0.00000000
      0.94000000	      7.68743037	     -0.17269435	      9.28711713	     -0.60864748	      0.87269447	      0.16271742	     12.96156595	     -0.19541614	     -4.71784495	     57.23803432	      0.75798569	      0.99899216	     18.44313283	    -15.35763785	     -7.87583206	      6.08131927	      5.25871256	     -4.37418003	     28.78761668	     -5.71424601	      0.50243869	     22.94554093	      1.64513654	     -7.87583206	    -37.23484615	      5.29045097	     -7.25961962	     14.28628697	    -10.53209282	      6.46914306	     41.39069890	     90.00000001	      0.00000000	      0.00000000	     17.70901496	    -16.21757199	     -3.51088272	     38.69078324	     90.00000001	      0.00000000	      0.00000000
      0.95000000	      7.58697055	     -0.24500322	      9.41004940	     -0.60059997	      0.87260132	      0.16223856	     13.95060687	     -0.25357737	     -4.41614153	     55.06511547	      1.00647100	      0.96106757	     18.51780348	    -15.07741213	     -7.86472005	      5.61474354	      5.19675901	     -4.23695769	     28.85385322	     -5.81450865	      0.50359474	     23.54794172	      1.60049938	     -7.86472005	    -37.21665120	      5.48104531	     -7.36908408	     13.88308483	    -10.40954745	      6.27120388	     40.65791225	     90.00000001	      0.00000000	      0.00000000	     18.33069913	    -16.53244642	     -2.88096053	     39.31210140	     90.00000001	      0.00000000	      0.00000000
      0.96000000	      7.31766016	     -0.23093285	      9.45585494	     -0.59265920	      0.87198329	      0.16183779	     15.15529755	     -0.44059125	     -4.20129362	     52.87572080	      1.11437398	      0.92285542	     18.41540070	    -14.61176761	     -7.85761008	      5.33944655	      5.34045913	     -4.20012285	     28.89973940	     -6.10671148	      0.50439561	     23.97405073	      1.58744308	     -7.85761008	    -37.02623776	      5.53327078	     -7.47376716	     13.39586656	    -10.34775268	      6.13948218	     40.15816991	     90.00000001	      0.00000000	      0.00000000	     18.95565360	    -16.79815913	     -2.53008672	     39.90239157	     90.00000001	      0.00000000	      0.00000000
